# AST/ASF file generated using VICON BodyLanguage
# -----------------------------------------------
:version 1.10
:name VICON
:units
  mass 1.0
  length 0.45
  angle deg
:documentation
   .ast/.asf automatically generated from VICON data using
   VICON BodyBuilder and BodyLanguage model FoxedUp or BRILLIANT.MOD
:root
   order TX TY TZ RX RY RZ
   axis XYZ
   position 0 0 0  
   orientation 0 0 0 
:bonedata
  begin
     id 1 
     name lhipjoint
     direction 0.440178 -0.822639 0.359871 
     length 2.53113 
     axis 0 0 0  XYZ
  end
  begin
     id 2 
     name lfemur
     direction 0.34202 -0.939693 0  
     length 7.88132  
     axis 0 0 20  XYZ
    dof rx ry rz
    limits (-160.0 20.0)
           (-70.0 70.0)
           (-60.0 70.0)
  end
  begin
     id 3 
     name ltibia
     direction 0.34202 -0.939693 0   
     length 8.43783   
     axis 0 0 20   XYZ
    dof rx
    limits (-10.0 170.0)
  end
  begin
     id 4 
     name lfoot
     direction 0.0886351 -0.243523 0.965837   
     length 2.63414   
     axis -90 7.62852e-016 20   XYZ
    dof rx rz
    limits (-45.0 90.0)
           (-70.0 20.0)
  end
  begin
     id 5 
     name ltoes
     direction 1.53703e-011 -4.21717e-011 1   
     length 1.31427   
     axis -90 7.62852e-016 20   XYZ
    dof rx
    limits (-90.0 20.0)
  end
  begin
     id 6 
     name rhipjoint
     direction -0.399779 -0.839773 0.367367   
     length 2.47948  
     axis 0 0 0  XYZ 
  end
  begin
     id 7 
     name rfemur
     direction -0.34202 -0.939693 0   
     length 7.74806   
     axis 0 0 -20   XYZ
    dof rx ry rz
    limits (-160.0 20.0)
           (-70.0 70.0)
           (-70.0 60.0)
  end
  begin
     id 8 
     name rtibia
     direction -0.34202 -0.939693 0   
     length 8.74432   
     axis 0 0 -20   XYZ
    dof rx
    limits (-10.0 170.0)
 end
 begin
     id 9 
     name rfoot
     direction -0.108514 -0.298139 0.948334   
     length 2.66102  
     axis -90 -7.62852e-016 -20   XYZ
    dof rx rz
    limits (-45.0 90.0)
           (-20.0 70.0)
  end
  begin
     id 10 
     name rtoes
     direction -1.53392e-011 -4.22077e-011 1   
     length 1.31983   
     axis -90 -7.62852e-016 -20   XYZ
    dof rx
    limits (-90.0 20.0)
  end
  begin
     id 11 
     name lowerback
     direction 0.0113257 0.999866 0.0118602   
     length 2.58694   
     axis 0 0 0   XYZ
    dof rx ry rz
    limits (-20.0 45.0)
           (-30.0 30.0)
           (-30.0 30.0)
  end
  begin
     id 12 
     name upperback
     direction -0.0164747 0.995193 -0.0965375   
     length 2.52368   
     axis 0 0 0   XYZ
    dof rx ry rz
    limits (-20.0 45.0)
           (-30.0 30.0)
           (-30.0 30.0)
  end
  begin
     id 13 
     name thorax
     direction -0.0194301 0.99433 -0.104552   
     length 2.56099   
     axis 0 0 0   XYZ
    dof rx ry rz
    limits (-20.0 45.0)
           (-30.0 30.0)
           (-30.0 30.0)
  end
  begin
     id 14 
     name lowerneck
     direction 0.0148543 0.995587 -0.092657   
     length 1.71582   
     axis 0 0 0   XYZ
    dof rx ry rz
    limits (-20.0 45.0)
           (-30.0 30.0)
           (-30.0 30.0)
  end
  begin
     id 15 
     name upperneck
     direction -0.0135467 0.993656 -0.111639   
     length 1.68937   
     axis 0 0 0   XYZ
    dof rx ry rz
    limits (-20.0 45.0)
           (-30.0 30.0)
           (-30.0 30.0)
  end
  begin
     id 16
     name head
     direction -0.00615349 0.999547 -0.029448  
     length 1.7462  
     axis 0 0 0   XYZ
    dof rx ry rz
    limits (-20.0 45.0)
           (-30.0 30.0)
           (-30.0 30.0)
  end
  begin
     id 17 
     name lclavicle
     direction 0.988267 0.149885 0.0293713  
     length 4.47222  
     axis 0 0 0   XYZ
    dof ry rz
    limits (-20.0 10.0)
           (0.0 20.0)
  end
  begin
     id 18 
     name lhumerus
     direction 1 -4.48986e-011 -1.14833e-027   
     length 5.37148   
     axis 180 -30 -90   XYZ
    dof rx ry rz
    limits (-60.0 90.0)
           (-90.0 90.0)
           (-90.0 90.0)
  end
  begin
     id 19
     name lradius
     direction 0.999998 0.00170963 -0.000987055   
     length 3.94212   
     axis 180 -30 -90   XYZ
    dof rx
    limits (-10.0 170.0)
  end
  begin
     id 20
     name lwrist
     direction 0.999998 7.53149e-005 -0.00194706   
     length 1.97106   
     axis 4.65056e-015 90 90   XYZ
    dof ry
    limits (-180.0 0.0)
 end
  begin
     id 21 
     name lhand
     direction 1 -4.48973e-011 -1.31746e-026   
     length 1.17917   
     axis 8.4065e-015 90 90   XYZ
    dof rx rz
    limits (-90.0 90.0)
           (-45.0 45.0)
  end
  begin
     id 22 
     name lfingers
     direction 1 -4.49107e-011 -2.63492e-026   
     length 0.950679   
     axis 1.6813e-014 90 90   XYZ
    dof rx
    limits (0.0 90.0)
  end
  begin
     id 23
     name lthumb
     direction 0.707107 -6.35048e-011 0.707107   
     length 1.36499   
     axis -90 45 2.85299e-015   XYZ
    dof rx rz
    limits (-45.0 45.0)
           (-45.0 45.0)
  end
  begin
     id 24 
     name rclavicle
     direction -0.996699 0.0642895 -0.0495725   
     length 4.62611  
     axis 0 0 0   XYZ 
    dof ry rz
    limits (-10.0 20.0)
           (-20.0 0.0)
  end
  begin
     id 25 
     name rhumerus
     direction -1 -4.48919e-011 -2.41059e-027  
     length 5.4981   
     axis 180 30 90   XYZ
    dof rx ry rz
    limits (-90.0 60.0)
           (-90.0 90.0)
           (-90.0 90.0)
  end
  begin
     id 26 
     name rradius
     direction -0.999999 0.00118101 -0.000681858   
     length 3.48381   
     axis 180 30 90   XYZ
    dof rx
    limits (-10.0 170.0)
  end
  begin
     id 27 
     name rwrist
     direction -0.999999 0.000321823 -0.00132288   
     length 1.7419   
     axis 4.65056e-015 -90 -90   XYZ
    dof ry
    limits (-180.0 0.0)
  end
  begin
     id 28
     name rhand
     direction -1 -4.49022e-011 -1.31746e-026   
     length 1.34932   
     axis 8.4065e-015 -90 -90   XYZ
    dof rx rz
    limits (-90.0 90.0)
           (-45.0 45.0)
  end
  begin
     id 29
     name rfingers
     direction -1 -4.49178e-011 -2.63492e-026   
     length 1.08785   
     axis 1.6813e-014 -90 -90   XYZ
    dof rx
    limits (0.0 90.0)
  end
  begin
     id 30
     name rthumb
     direction -0.707107 -6.34713e-011 0.707107   
     length 1.56195   
     axis -90 -45 -2.85299e-015   XYZ
    dof rx rz
    limits (-45.0 45.0)
           (-45.0 45.0)
  end
:hierarchy
  begin
    root lhipjoint rhipjoint lowerback
    lhipjoint lfemur
    lfemur ltibia
    ltibia lfoot
    lfoot ltoes
    rhipjoint rfemur
    rfemur rtibia
    rtibia rfoot
    rfoot rtoes
    lowerback upperback
    upperback thorax
    thorax lowerneck lclavicle rclavicle
    lowerneck upperneck
    upperneck head
    lclavicle lhumerus
    lhumerus lradius
    lradius lwrist
    lwrist lhand lthumb
    lhand lfingers
    rclavicle rhumerus
    rhumerus rradius
    rradius rwrist
    rwrist rhand rthumb
    rhand rfingers
  end

#!OML:ASF X:\für Bonn\!DataBase\2005_08_10_Bjorn_Final\c3d\bjorn.ASF
:FULLY-SPECIFIED
:DEGREES
29
root 2.60908 18.8076 5.64891 -1985.03 -37.3661 176.993
lowerback 14.2114 3.96326 -8.21483
upperback 18.2441 1.62983 -3.34469
thorax 12.0329 -1.27977 0.473083
lowerneck 1.53097 -3.53308 -3.01346
upperneck 20.9365 -8.62459 11.9161
head 6.72964 -4.12633 3.83006
rclavicle -7.87187e-014 -2.06736e-014
rhumerus -22.6272 -23.4718 -89.5842
rradius 36.7119
rwrist 10.7217
rhand -17.6176 9.77776
rfingers 7.12502
rthumb 8.63937 -20.0255
lclavicle -7.87187e-014 -2.06736e-014
lhumerus -3.74685 27.0812 74.3357
lradius 7.73639
lwrist -57.9639
lhand -17.8265 -3.33181
lfingers 7.12502
lthumb 8.43774 746.48
rfemur -354.294 15.4882 376.9
rtibia 31.2447
rfoot -14.0966 26.1157
rtoes 17.8282
lfemur -12.1229 -6.20941 -10.8012
ltibia 17.3
lfoot 2.134 -9.32208
ltoes -21.9265
30
root 2.5569 18.823 5.67691 -1985.06 -36.7463 177.074
lowerback 14.7037 4.11602 -8.36295
upperback 18.3977 1.66513 -3.42432
thorax 11.9486 -1.31619 0.445454
lowerneck 1.5308 -3.51899 -3.6443
upperneck 20.6074 -8.55194 12.2442
head 6.65017 -4.11277 4.04991
rclavicle 4.45278e-014 -7.79236e-014
rhumerus -22.6892 -23.7338 -89.5702
rradius 36.3574
rwrist 10.7525
rhand -17.7432 9.38231
rfingers 7.12502
rthumb 8.51816 -20.4259
lclavicle 4.45278e-014 -7.79236e-014
lhumerus -2.19922 26.9639 74.7536
lradius 7.33607
lwrist -59.2227
lhand -17.0208 -2.62
lfingers 7.12502
lthumb 9.2153 747.159
rfemur -354.8 15.0696 376.744
rtibia 32.1656
rfoot -13.9492 25.4353
rtoes 17.6479
lfemur -11.9619 -5.82028 -10.8507
ltibia 17.3088
lfoot 2.04979 -9.07116
ltoes -22.0004
31
root 2.5061 18.8393 5.70752 -1985.06 -36.1319 177.145
lowerback 15.1702 4.29525 -8.46322
upperback 18.5704 1.73656 -3.49798
thorax 11.9021 -1.33213 0.394116
lowerneck 1.48978 -3.54228 -4.24354
upperneck 20.2868 -8.53279 12.5797
head 6.58513 -4.11833 4.2624
rclavicle -5.32743e-014 -5.24792e-014
rhumerus -22.7193 -24.0865 -89.5477
rradius 36.001
rwrist 10.8563
rhand -17.9033 9.005
rfingers 7.12502
rthumb 8.3637 -20.8094
lclavicle -5.32743e-014 -5.24792e-014
lhumerus -0.594883 26.74 75.254
lradius 7.05839
lwrist -60.3498
lhand -16.136 -1.94749
lfingers 7.12502
lthumb 10.069 747.792
rfemur -355.349 14.6022 376.561
rtibia 33.1162
rfoot -13.8886 24.687
rtoes 16.9389
lfemur -11.8193 -5.35895 -10.9158
ltibia 17.2843
lfoot 1.98447 -8.87955
ltoes -22.1262
32
root 2.45632 18.8572 5.73923 -1985.05 -35.5295 177.216
lowerback 15.6299 4.48066 -8.5293
upperback 18.7451 1.81744 -3.54595
thorax 11.8623 -1.34116 0.351138
lowerneck 1.5206 -3.58021 -4.88564
upperneck 19.9236 -8.51008 12.8611
head 6.4934 -4.12962 4.46652
rclavicle 7.39479e-014 5.08889e-014
rhumerus -22.7264 -24.348 -89.4848
rradius 35.6201
rwrist 10.868
rhand -17.9986 8.63185
rfingers 7.12502
rthumb 8.27169 -21.1862
lclavicle 7.39479e-014 5.08889e-014
lhumerus 1.02939 26.463 75.8642
lradius 6.83
lwrist -61.2743
lhand -15.2694 -1.31503
lfingers 7.12502
lthumb 10.9049 748.382
rfemur -355.906 14.1019 376.381
rtibia 34.0763
rfoot -13.8108 23.8959
rtoes 16.2227
lfemur -11.677 -4.94223 -10.9796
ltibia 17.2408
lfoot 1.88285 -8.63336
ltoes -22.3014
33
root 2.40736 18.8751 5.77317 -1985.02 -34.9229 177.302
lowerback 16.0844 4.6498 -8.57597
upperback 18.8803 1.88724 -3.5605
thorax 11.7764 -1.34861 0.33846
lowerneck 1.62193 -3.60589 -5.60038
upperneck 19.5435 -8.4571 13.0978
head 6.38223 -4.13576 4.6722
rclavicle 1.98785e-014 0
rhumerus -22.8053 -24.5069 -89.3123
rradius 35.2399
rwrist 10.9227
rhand -18.0102 8.30028
rfingers 7.12502
rthumb 8.26044 -21.5182
lclavicle 1.98785e-014 0
lhumerus 2.53624 26.1837 76.4981
lradius 6.66949
lwrist -62.0666
lhand -14.5583 -0.823066
lfingers 7.12502
lthumb 11.5907 748.836
rfemur -356.508 13.5888 376.204
rtibia 35.0296
rfoot -13.7993 23.0517
rtoes 15.3319
lfemur -11.5874 -4.5127 -11.0234
ltibia 17.1974
lfoot 1.75434 -8.41271
ltoes -22.5968
34
root 2.35922 18.893 5.80839 -1984.93 -34.3296 177.401
lowerback 16.4712 4.78723 -8.5427
upperback 19.0215 1.93244 -3.63273
thorax 11.7422 -1.3546 0.218745
lowerneck 1.7048 -3.61775 -6.17385
upperneck 19.1515 -8.37747 13.271
head 6.26099 -4.12175 4.83337
rclavicle 6.20208e-014 6.99722e-014
rhumerus -22.821 -24.652 -89.2713
rradius 34.7975
rwrist 11.1497
rhand -18.0326 8.06594
rfingers 7.12502
rthumb 8.23887 -21.7534
lclavicle 6.20208e-014 6.99722e-014
lhumerus 4.06969 25.8757 77.0191
lradius 6.54164
lwrist -62.8253
lhand -13.9165 -0.508809
lfingers 7.12502
lthumb 12.2096 749.115
rfemur -357.166 13.0121 376.014
rtibia 35.959
rfoot -13.8035 22.2405
rtoes 14.3077
lfemur -11.5737 -4.08919 -11.0512
ltibia 17.1631
lfoot 1.62591 -8.1795
ltoes -22.9231
35
root 2.31265 18.9117 5.84445 -1984.84 -33.7452 177.536
lowerback 16.8607 4.92717 -8.44321
upperback 19.1558 1.98875 -3.71362
thorax 11.6997 -1.34424 0.052797
lowerneck 1.70949 -3.66788 -6.55196
upperneck 18.7749 -8.33091 13.311
head 6.1511 -4.11218 4.91232
rclavicle -1.11319e-014 -4.77083e-015
rhumerus -22.8149 -24.7857 -89.2725
rradius 34.296
rwrist 11.4832
rhand -18.0606 7.93892
rfingers 7.12502
rthumb 8.21182 -21.8815
lclavicle -1.11319e-014 -4.77083e-015
lhumerus 5.53933 25.4877 77.4206
lradius 6.52124
lwrist -63.5375
lhand -13.3794 -0.292717
lfingers 7.12502
lthumb 12.7275 749.299
rfemur -357.85 12.4484 375.872
rtibia 36.8589
rfoot -13.8595 21.4122
rtoes 13.1214
lfemur -11.622 -3.65101 -11.0422
ltibia 17.161
lfoot 1.4999 -7.99598
ltoes -23.2724
36
root 2.26651 18.9288 5.88108 -1984.73 -33.1649 177.652
lowerback 17.2309 5.06147 -8.36658
upperback 19.3117 2.03045 -3.79776
thorax 11.6984 -1.34826 -0.106185
lowerneck 1.57815 -3.72786 -6.8201
upperneck 18.439 -8.27634 13.2307
head 6.06953 -4.08943 4.92963
rclavicle 9.54166e-015 -1.20861e-013
rhumerus -22.6858 -24.9111 -89.3133
rradius 33.7562
rwrist 11.9528
rhand -17.907 7.8037
rfingers 7.12502
rthumb 8.36008 -22.0109
lclavicle 9.54166e-015 -1.20861e-013
lhumerus 7.05167 25.1319 77.822
lradius 6.50303
lwrist -64.197
lhand -12.9682 -0.181297
lfingers 7.12502
lthumb 13.1238 749.386
rfemur -358.543 11.8396 375.709
rtibia 37.7339
rfoot -13.8488 20.6258
rtoes 11.9467
lfemur -11.699 -3.258 -11.0395
ltibia 17.1818
lfoot 1.39096 -7.74662
ltoes -23.3014
37
root 2.2204 18.9454 5.92058 -1984.59 -32.5824 177.804
lowerback 17.5846 5.18282 -8.25099
upperback 19.461 2.06357 -3.86645
thorax 11.6998 -1.35097 -0.268008
lowerneck 1.43414 -3.78613 -7.02035
upperneck 18.0697 -8.20141 13.0806
head 5.97312 -4.05486 4.91293
rclavicle -1.43125e-014 -1.11319e-014
rhumerus -22.4965 -25.0013 -89.3359
rradius 33.2178
rwrist 12.5655
rhand -17.5297 7.55534
rfingers 7.12502
rthumb 8.72422 -22.2444
lclavicle -1.43125e-014 -1.11319e-014
lhumerus 8.50082 24.7805 78.1691
lradius 6.57481
lwrist -64.8139
lhand -12.7409 -0.134339
lfingers 7.12502
lthumb 13.343 749.418
rfemur -359.297 11.2161 375.571
rtibia 38.5909
rfoot -13.7718 19.8839
rtoes 10.7363
lfemur -11.8484 -2.8468 -11.0083
ltibia 17.2244
lfoot 1.28967 -7.53206
ltoes -23.3766
38
root 2.17422 18.9635 5.96249 -1984.44 -31.9969 177.951
lowerback 17.9405 5.28992 -8.14768
upperback 19.6088 2.07477 -3.91778
thorax 11.6998 -1.36761 -0.402263
lowerneck 1.27802 -3.83845 -7.22172
upperneck 17.698 -8.10777 12.8735
head 5.87467 -4.01303 4.87876
rclavicle -1.03368e-013 -1.27222e-014
rhumerus -22.2357 -25.0645 -89.3524
rradius 32.6293
rwrist 13.2468
rhand -17.0655 7.32331
rfingers 7.12502
rthumb 9.17209 -22.4572
lclavicle -1.03368e-013 -1.27222e-014
lhumerus 9.85219 24.489 78.4589
lradius 6.75247
lwrist -65.31
lhand -12.7202 -0.109612
lfingers 7.12502
lthumb 13.3629 749.442
rfemur -360.079 10.591 375.418
rtibia 39.4441
rfoot -13.6876 19.2046
rtoes 9.38338
lfemur -12.011 -2.48225 -10.9805
ltibia 17.2671
lfoot 1.21875 -7.28298
ltoes -23.3029
